<?xml version="1.0" encoding="utf-8"?>
<!-- Generator: Adobe Illustrator 26.0.2, SVG Export Plug-In . SVG Version: 6.00 Build 0)  -->
<svg version="1.1" id="Layer_1" xmlns="http://www.w3.org/2000/svg" xmlns:xlink="http://www.w3.org/1999/xlink" x="0px" y="0px"
	 viewBox="0 0 750 750" style="enable-background:new 0 0 750 750;" xml:space="preserve">
<style type="text/css">
	.st0{fill:#0A2A42;}
	.st1{fill:none;stroke:#0A2A42;stroke-width:3;stroke-miterlimit:10;}
	.st2{fill:none;stroke:#CCDDE2;stroke-width:4.11;stroke-miterlimit:10;}
	.st3{fill:none;stroke:#000000;stroke-width:4.11;stroke-miterlimit:10;}
	.st4{fill:none;stroke:#0A2A42;stroke-width:4.11;stroke-miterlimit:10;}
	.st5{fill:#A8F387;stroke:#0A2A42;stroke-miterlimit:10;}
	.st6{fill:#16D6FA;stroke:#0A2A42;stroke-miterlimit:10;}
	.st7{fill:#D7E8F0;}
	.st8{fill:#D2D7FF;}
	.st9{fill:none;stroke:#0A2A42;stroke-miterlimit:10;}
	.st10{fill:#FFFFFF;stroke:#0A2A42;stroke-width:3;stroke-miterlimit:10;}
	.st11{fill:#FFFFFF;}
	.st12{fill:#FE566A;stroke:#0A2A42;stroke-miterlimit:10;}
	.st13{fill:#3FBDF1;stroke:#0A2A42;stroke-miterlimit:10;}
	.st14{fill:#6ACFC9;stroke:#0A2A42;stroke-miterlimit:10;}
	.st15{fill:#53BF9D;stroke:#0A2A42;stroke-miterlimit:10;}
	.st16{fill:#FFFFFF;stroke:#0A2A42;stroke-miterlimit:10;}
	.st17{fill:#FEC603;stroke:#0A2A42;stroke-miterlimit:10;}
	.st18{fill:#AF87CE;stroke:#0A2A42;stroke-miterlimit:10;}
	.st19{fill:#EA1A7F;}
</style>
<g>
	<g>
		<path class="st0" d="M547.4,253.8c1.2-0.9,2.7-1.4,4.3-1.4c3.1,0,5.2,2.7,8.1,3.4c2.1,0.6,4,0.1,6.2-0.6c2.2-0.7,4.4-1.3,6.6-1.8
			c2.6-0.6,5-1,7.7-0.1c5.3,1.7,7.6,7.1,12.6,8.6c4.1,1.3,9.2,0.3,12.3,4.1c1.5,1.8,2.5,4,3.1,6.3s0.7,4.7,0.2,7
			c-0.4,1.7-1.1,3.4-2,4.9c-2.1,3.5,2.5,5.4,4,8.6c0.9,1.8,0.8,5-0.1,7.7c-0.2,0.2,1.1,1,0.9,1.2c-3.2,3.1-4.2,6.1-3.8,10.4
			c0.6,6.3-7.4,14-14.4,10.4l1,7.9c-2.4,0-4.7-0.8-6.5-2.3s-3.1-3.6-3.6-6l-1.3-6.7c6-2.6,6.7-11.9,2.6-16.3
			c-2.1-2.3-4.1-1.4-5.8,0.3c-1.8-0.3-1.8,2.8-3.2,4.6l-4.7-4.7c3.1-5.7,5.7-11.8,7.5-18.1c0.2-0.6,0.2-1.1,0.2-1.7
			c-0.1-0.6-0.2-1.1-0.5-1.7c-0.3-0.5-0.6-1-1.1-1.3c-0.4-0.4-1-0.7-1.5-0.8l-2.9-0.7c-5.1-0.5-10.3-0.7-15.3-1.8
			c-3.9-0.8-8.5-2.3-10.7-6C545.1,263.8,545.1,257.9,547.4,253.8z"/>
		<path class="st1" d="M533.2,169.5c5.1,25.4,28,55.9,47.9,58c7.7,0.8,15.2,2.5,22.4,5.1c124.7,46.6,40,140,40,140"/>
		<path class="st2" d="M288,241.9L288,241.9"/>
		<path class="st3" d="M510.2,410L510.2,410"/>
		<path class="st4" d="M594,330.5c-2.4,0-4.7-0.8-6.5-2.3s-3.1-3.6-3.6-6l-1.3-6.7c6-2.6,6.7-11.9,2.6-16.3
			c-2.1-2.3-4.1-1.4-5.8,0.3c-1.1,1.2-2.1,2.5-2.9,4"/>
		<path class="st1" d="M593,322.6l1,7.9c0.3,1.9,1,7.7,1.7,13.7c0.8,6.5,1.7,13.3,2,15.9"/>
		<path class="st1" d="M561.6,291c-1.9-8.2-11.9-8.7-11.9-8.7"/>
		<path class="st1" d="M552.1,271.3c-4,4.4-3.5,11-3.8,15.2c-0.1,2.5-1.1,4.9-2.8,6.7l-6.8,7.6c1.3,2.7,4.8,3.1,7.5,3.2"/>
		<path class="st0" d="M556,294c1.1-1,1-2.7-0.1-4c-1.1-1.2-2.9-1.5-3.9-0.5c-1.1,1-1,2.7,0.1,4C553.2,294.7,554.9,295,556,294z"/>
		<path class="st1" d="M557.9,328.6l-5.2,25"/>
		<path class="st5" d="M440.5,422.8c10.9,10.4,22.6,19.9,36.6,25.6c1.5-3.3,3.3-6.9,5.2-10.8c7-14,14.8-27.6,23.6-40.6
			c9.9-14.4,21.3-28.1,33.9-37.7c2.5-1.9,5.1-3.5,7.9-4.8c7.4-3.4,15.5-4.5,23.5-3.4c8,1.2,15.5,4.6,21.6,10c3.5,3,6.4,6.6,8.8,10.6
			c2.7,4.6,5,9.4,6.9,14.4c22.4,59-19.6,126.7-67.8,160.5c-23.8,16.7-53.5,24.2-82.4,22.1c-6-0.5-11.9-1.3-17.8-2.4
			c0,0-30.3-11.2,9.7-72.2l-33.2-27C417,467.1,453.6,447.4,440.5,422.8z"/>
		<path class="st6" d="M87.3,459.1c0.2-1.8,0.9-3.5,1.9-5s2.4-2.7,4-3.5s3.4-1.3,5.2-1.3c0-0.1,0-0.3,0-0.4
			c-0.8-10.2,10-17.1,19.2-12.8c13.6,6.4,30.7,10.9,39.4,13c2.4,0.6,4.9,1,7.5,1.1c0.1,0.1,0.1,0.1,0.2,0.2
			c-3.6,5.1-5.6,11.2-5.7,17.4c-0.1,6.3,1.8,12.4,5.3,17.6c-5.3,15.6-4.6,24.6-2.2,29.6c-5.8,0-56.1-1.4-74-50.8
			C87.2,462.7,87,460.9,87.3,459.1z"/>
		<path class="st7" d="M340.8,538.3c3.5-0.2,7,0,10.5,0.7c6,1.4,11.9,2.8,17.8,4.3c16.9,4.3,33.6,10.4,50.4,15.5
			c14.4,4.3,28.9,7.9,43.8,9c2.3,0.2,4.6,0.3,6.8,0.3h0.3c26.6,0.5,53.4-7.1,75.2-22.4c48.2-33.8,90.2-101.5,67.8-160.5
			c0-0.4-0.2-1-0.2-1.4c-1.4-11.1,6.5-18.3,15.1-19.4c2.3,0.3,4.4,1.1,6.4,2.2c1.9,1.2,3.6,2.8,4.9,4.7c1,1.4,1.8,2.9,2.3,4.5
			c16.5,46.4,34.8,146.7-66.9,231.6c-32.2,26.9-74.2,40.7-116.3,41.2c-42-0.5-83.9-14.3-115.9-41.4c-9.1-7.7-18.5-16.6-24.6-26.9
			C305.5,558.1,320.1,539.7,340.8,538.3z"/>
		<path class="st8" d="M340.8,538.3c1.8,0.1,3.6,0.4,5.4,0.7c6,1.4,11.9,2.8,17.8,4.3c16.9,4.3,33.6,10.4,50.4,15.5
			c14.4,4.3,28.9,7.9,43.8,9c4,0.3,7.9,0.4,12,0.3h0.3c26.6,0.5,53.4-7.1,75.2-22.4c48.2-33.8,90.2-101.5,67.8-160.5
			c0-0.4-0.2-1-0.2-1.4c-1.4-11.1,6.5-18.3,15.1-19.4c2.3,0.3,4.4,1.1,6.4,2.2c1.9,1.2,3.6,2.8,4.9,4.7c1,1.4,1.8,2.9,2.3,4.5
			c16.5,46.4,34.8,146.7-66.8,231.6c-32.2,26.9-74.2,40.7-116.3,41.2c-43.8,0.6-87.7-13.2-121-41.4c-9.1-7.7-18.5-16.6-24.6-26.9
			C299.4,556.3,317.5,536.7,340.8,538.3z"/>
		<path class="st8" d="M475.6,648.2l10.8,16.3c0,0,63.4,7,91.7,29c6.6,5.1,3.1,15.8-5.3,15.8h-1.3c-1.2,0-2.4-0.2-3.4-0.7
			c-1.1-0.5-2.1-1.1-2.9-2c-7.1-7.6-33-28.5-100.4-27.8c-69.2,0.6-99.7,21.8-107.7,28.5c-1.6,1.3-3.6,2-5.6,2
			c-8.2,0-11.9-10.2-5.7-15.5c33.9-28.5,95.8-30.9,95.8-30.9l10.2-14.5"/>
		<path class="st8" d="M131.4,568.2c11.7,13.3,11.4,55.4,10.7,72.7c-0.2,4.8-1.8,9.5-4.6,13.5c-3.7,5.1-9.1,8.7-15.3,10
			c-12.3,2.7-34.5,10.1-52.6,29.8c-1.2,1.3-2,2.9-2.3,4.6c-0.3,1.7-0.1,3.5,0.6,5.1s1.8,3,3.3,3.9c1.5,1,3.2,1.5,4.9,1.5
			c1.4,0,2.8-0.3,4-1c1.2-0.6,2.3-1.5,3.1-2.6c6-8,24.8-26.5,71.3-26.9c41.3-0.4,58.4,17.7,64.1,26.2c0.9,1.3,2.1,2.4,3.5,3.2
			s3,1.1,4.6,1.1c8.6,0,13-10.3,7.1-16.5c-13.9-14.9-36.4-22.7-48.8-26.1c-5.9-1.6-11-5.3-14.4-10.3l-2.1-3.1
			c-2.2-3.3-3.6-7.2-4-11.2c-5.9-55.9,13.1-73.9,13.1-73.9"/>
		<path class="st3" d="M388.1,434.3L388.1,434.3L388.1,434.3"/>
		<path class="st6" d="M62.3,546.9c1.5-2.1,3.5-3.9,5.8-5.1c2.3-1.2,4.9-1.8,7.5-1.8h147c3.7-0.2,7.3,1,10.1,3.5
			c2.8,2.4,4.5,5.9,4.8,9.5c0.3,3.7-0.9,7.3-3.3,10.2c-2.4,2.8-5.8,4.6-9.5,5h-147c-2.1,0-4.2-0.4-6.2-1.2s-3.8-2-5.3-3.5
			s-2.7-3.3-3.5-5.3s-1.2-4.1-1.2-6.2C61.5,550.3,61.7,548.6,62.3,546.9z"/>
		<path class="st1" d="M131.4,568.2c11.7,13.3,11.4,55.4,10.7,72.7c-0.2,4.8-1.8,9.5-4.6,13.5c-3.7,5.1-9.1,8.7-15.3,10
			c-12.3,2.7-34.5,10.1-52.6,29.8c-1.2,1.3-2,2.9-2.3,4.6c-0.3,1.7-0.1,3.5,0.6,5.1s1.8,3,3.3,3.9c1.5,1,3.2,1.5,4.9,1.5
			c1.4,0,2.8-0.3,4-1c1.2-0.6,2.3-1.5,3.1-2.6c6-8,24.8-26.5,71.3-26.9c41.3-0.4,58.4,17.7,64.1,26.2c0.9,1.3,2.1,2.4,3.5,3.2
			s3,1.1,4.6,1.1c8.6,0,13-10.3,7.1-16.5c-13.9-14.9-36.4-22.7-48.8-26.1c-5.9-1.6-11-5.3-14.4-10.3l-2.1-3.1
			c-2.2-3.3-3.6-7.2-4-11.2c-5.9-55.9,13.1-73.9,13.1-73.9"/>
		<path class="st9" d="M576.6,302.8c-0.1,0.2-0.2,0.5-0.2,0.7c-0.1,0.2-0.2,0.4-0.2,0.6"/>
		<path class="st9" d="M571.6,299.4l3,3.1l1.6,1.6"/>
		<path class="st1" d="M571.5,299.4c3.1-5.7,5.7-11.8,7.5-18.1c0.3-1.1,0.2-2.3-0.3-3.4c-0.5-1-1.5-1.8-2.6-2.2l-2.9-0.7
			c-5.1-0.5-10.3-0.7-15.3-1.8c-3.9-0.8-8.5-2.3-10.7-6c-2.1-3.5-2.1-9.4,0.1-13.5c1.4-2.6,3.8-4.5,7-4.4c3.2,0,5.4,2.7,8.3,3.5
			c2.2,0.7,4.2,0.1,6.5-0.6c2.2-0.7,4.5-1.3,6.8-1.8c2.7-0.6,5.2-1,7.9-0.1c5.4,1.7,7.8,7.2,13,8.9c4.3,1.4,9.5,0.3,12.7,4.2
			c1.5,1.9,2.6,4.1,3.2,6.4c0.6,2.3,0.7,4.8,0.2,7.2c-0.4,1.8-1.1,3.5-2.1,5.1c-2.2,3.6,1,5.6,2.4,9c0.8,1.6,1.1,3.4,0.8,5.2
			c-0.3,1.8-1.1,3.4-2.3,4.8c-0.2,0.2-0.4,0.4-0.6,0.6c-3.2,3.1-4.2,6.1-3.8,10.4c0.6,6.3-7.4,14-14.4,10.4"/>
		<path class="st1" d="M543.5,304.1c0,0-5,18.3,3.8,24.5s24.2-5.1,24.2-5.1"/>
		<path class="st10" d="M535.6,192.4c0-60.3-48.9-109.1-109.1-109.1s-109.1,48.9-109.1,109.1s48.9,109.1,109.1,109.1
			C486.9,301.5,535.6,252.7,535.6,192.4z"/>
		<path class="st1" d="M75.5,522.1c-27.3-56-51.5-144.3,8.6-223.6c39.6-52.1,84-56.8,121.3-52.1c112.4,4.9,114.8-78.9,114.8-78.9"/>
		<g>
			<path class="st1" d="M369.8,409.1c-8.8,0.1-21.3,9.7-29.1,16.3c-0.9,0.7-1.9,1.3-3,1.6c-1.1,0.3-2.2,0.4-3.4,0.2
				c-1.1-0.2-2.2-0.6-3.1-1.2s-1.8-1.5-2.4-2.4c-0.9-1.5-1.3-3.3-1.1-5.1s1-3.4,2.3-4.7c16.3-16.5,39-29.6,63-25.3
				c18.6,3.3,31.6,15.6,44.4,28.5c12.8,12.8,26.7,25.5,44,32.1c15.8,6.1,27.1-1.8,33.7-14.6c8.8-16.9,17.6-33.8,26.4-50.7"/>
			<path class="st1" d="M384.1,435.6c2.7-1.8,6.8-2,9.5-3.8"/>
			<path class="st1" d="M395.3,440.5c-7.9,4.9-13,7.3-21,3.3c-7.3-3.7-13.7-8.9-18.9-15.3c-4.1-5-2-13.3,3.8-16.1"/>
			<path class="st1" d="M361.6,435.1c-0.1-0.4-0.2-0.9-0.2-1.4c-0.3-11,11.1-13.9,11.1-13.9"/>
			<path class="st1" d="M372.5,442.8c-7.3-6.2,8-16.1,8-16.1"/>
			<path class="st1" d="M160.4,486c14.4,3.7,29.1,6.6,43.6,9.9c36.3,8.3,72.5,17,108.3,27.1c35.6,10,71.8,20.6,105.2,36.8"/>
			<path class="st1" d="M582.7,367.8c11.5,6.3,13.3,18.3,13.1,30.3c0,1.4-0.1,2.8-0.1,4.3c-2.5,43.9-30.8,89.4-71.4,107.6
				c-0.7,0.3-1.4,0.6-2.1,0.9c-26.4,10.3-55.1-5.8-77-22.4c-0.7-0.5-1.3-1-2-1.5c-3.2-2.5-6.3-5-9.2-7.4
				c-11.5-9.7-22.5-20.2-32.8-31.2c-1.9-2-9.3-13-11.4-15.1"/>
			<path class="st1" d="M350.7,540.4c-26.4-6.5-49.8,14.6-34.5,40.8c6.1,10.4,15.5,19.2,24.6,26.9c65.4,55.4,171.7,55,237.3,0.2
				c101.7-84.9,83.3-185.2,66.9-231.6c-7-19.7-36.4-12.7-33.8,8l0.2,1.3"/>
			<path class="st1" d="M473.6,649.2l10.8,16.3c0,0,63.4,7,91.7,29c6.6,5.1,3.1,15.8-5.3,15.8h-1.3c-1.2,0-2.4-0.2-3.4-0.7
				c-1.1-0.5-2.1-1.1-2.9-2c-7.1-7.6-33-28.5-100.4-27.8c-69.2,0.6-99.7,21.8-107.7,28.5c-1.6,1.3-3.6,2-5.6,2
				c-8.2,0-11.9-10.2-5.7-15.5c33.9-28.5,95.8-30.9,95.8-30.9l10.2-14.5"/>
			<path class="st1" d="M443.5,368.2c4.3,24.6,15,61.2,41,68.2"/>
			<path class="st1" d="M471.6,352.2c-0.9-0.2-1.7-0.3-2-0.4c-2.3-0.6-4.5-1.2-6.4-2.7c-1.9-1.6-3.1-3.9-2.1-6.3
				c0.5-1.2,1.3-2.3,2.3-3.1c1-0.9,2.1-1.5,3.4-1.9c2.1-0.6,4.3-0.7,6.5-0.1c4.2,1,7.8,4.1,8.6,8.6c1,6.3-3.2,12.4-6.1,17.6
				c-0.7,1.3-1.1,2.7-1.1,4.2s0.3,2.9,0.9,4.2c3,6.6,7.6,12.4,13.4,16.8c5.8,4.3,12.7,7.1,19.9,8.1"/>
			<path class="st1" d="M96.3,450.5c0.4,3.3,1.5,6.5,3.3,9.3c9.6,15.4,60.8,26.2,60.8,26.2"/>
			<path class="st1" d="M480,448.4c11.6-25,34.3-67.3,62.8-89.1c20.1-15.4,49-9.4,61.8,12.4c36.2,62-8.8,138.3-60.9,174.9
				c-23.8,16.7-53.5,24.2-82.4,22.1c-14.9-1.1-29.5-4.6-43.9-9c-16.9-5.1-33.6-11.2-50.4-15.5c-60.7-15.5-122.7-24.3-185.3-27.3
				c-7.1-0.4-14.2-0.6-21.3-0.9c0,0-55.5,1.6-74.6-50.8c-0.6-1.7-0.8-3.5-0.6-5.3c0.2-1.8,0.9-3.5,1.9-4.9s2.4-2.7,4-3.5
				s3.4-1.3,5.2-1.3c0-0.1,0-0.3,0-0.4c-0.8-10.2,10-17.1,19.2-12.8c13.6,6.4,30.7,10.9,39.4,13c3.6,0.9,7.2,1.3,10.9,1.3h56.5
				c0,0,100.8-1.4,190,8.1"/>
			<path class="st1" d="M61.9,544.1c0-6.7,2.7-13,7.4-17.7C74,521.6,80.4,519,87,519h124.2c6.6,0,13,2.7,17.7,7.4s7.4,11.1,7.4,17.7
				"/>
			<path class="st1" d="M60.3,547.9c1.1-3.3,3.1-6.1,5.9-8.1c2.8-2,6.1-3.1,9.5-3.1h147c2.2,0,4.3,0.3,6.3,1.1s3.8,2,5.4,3.5
				c1.5,1.5,2.8,3.3,3.6,5.3s1.3,4.1,1.3,6.3s-0.4,4.3-1.3,6.3c-0.8,2-2.1,3.8-3.6,5.3s-3.4,2.7-5.4,3.5s-4.2,1.2-6.3,1.1h-147
				c-2.1,0-4.2-0.4-6.2-1.2s-3.8-2-5.3-3.5s-2.7-3.3-3.5-5.3s-1.2-4.1-1.2-6.2C59.5,551.3,59.7,549.6,60.3,547.9z"/>
			<path class="st1" d="M440.3,338.2l-0.6-4.9c-0.1-0.7,0-1.3,0.2-1.9s0.5-1.2,1-1.7c0.4-0.5,1-0.9,1.6-1.1c0.6-0.3,1.2-0.4,1.9-0.4
				h24.8c0.7,0,1.3,0.1,1.9,0.4s1.1,0.7,1.6,1.1c0.4,0.5,0.8,1.1,1,1.7s0.3,1.3,0.2,1.9l-0.5,4.3c-2.1-0.6-4.4-0.5-6.5,0.1
				c-1.3,0.4-2.4,1-3.4,1.9s-1.8,1.9-2.3,3.1c-1,2.4,0.2,4.7,2.1,6.3c1.9,1.6,4.1,2.1,6.4,2.7c0.3,0.1,1.1,0.3,2,0.4l-2.1,17.9
				c-0.1,1.1-0.7,2.2-1.5,2.9s-2,1.2-3.1,1.2h-16.2c-1.1,0-2.2-0.4-3.1-1.2c-0.9-0.8-1.4-1.8-1.5-2.9l-0.3-2.5"/>
			<path class="st1" d="M441.6,349.5v-0.2"/>
			<path class="st1" d="M442.8,359.6L442.8,359.6"/>
			<path class="st1" d="M432.4,347.5c0.3,0.3,0.6,0.5,1,0.7c2.4,1.3,6.1,1.3,8.3,1.2c1.1-0.1,1.9-0.2,1.9-0.2c3-0.3,6.6-3.1,5.8-6.4
				c-0.8-3.7-5.4-4.9-8.7-4.5c-0.1,0-0.2,0-0.3,0c-1.7,0.3-3.3,1.1-4.5,2.3c-1.2,1.2-2,2.8-2.2,4.5c-0.1,1-0.3,2.1-0.3,3.1
				c-0.1,2.4,0.1,4.9,0.5,7.3v0.1c0.6,3.3,1.8,6.4,3.5,9.2c1.3,1.5,3.1,2.5,5,2.8c0.4,0.1,0.9,0.1,1.3,0c1-0.2,1.9-0.7,2.5-1.5
				s0.9-1.8,0.8-2.8s-0.5-1.9-1.3-2.6c-0.7-0.7-1.7-1.1-2.7-1.1c-0.1,0-0.2,0-0.3,0c-0.1,0-0.1,0-0.2,0"/>
			<path class="st1" d="M433.9,355.4c1,4.8,7.2,4.6,12.5,3.8c1.2-0.2,2.3-0.8,3-1.7c0.8-0.9,1.1-2.1,1.1-3.3
				c-0.1-1.2-0.6-2.4-1.5-3.2c-0.9-0.9-2.1-1.3-3.3-1.3h-1.8h-4.1h-0.5"/>
			<path class="st1" d="M223.3,436.6c2.9-1.8,5.3-4.2,6.2-7.2c50.3,1.4,115.4,3.2,115.4,3.2c5,0.1,9,4.7,9,10.1v0.2
				c-0.1,5.6-4.4,10-9.5,9.9l-116.2-2.7c-6-0.1-13-1.6-13-10.3v-1.3C218,438.7,220.8,438,223.3,436.6z"/>
			<path class="st1" d="M153.5,315.5c0-2.1,0.7-4.2,2-5.9c1.3-1.7,3.2-2.8,5.2-3.3c2.1-0.5,4.3-0.2,6.2,0.7s3.5,2.5,4.4,4.4
				l52,106.6c0.4,0.9,0.7,1.8,0.9,2.8c0.1,0.4,0.1,0.9,0.1,1.3c0,1.8-0.5,3.5-1.4,5s-2.3,2.7-3.9,3.5c-2,1-4.3,1.2-6.4,0.7
				c-1.3-0.3-2.6-0.9-3.7-1.8c-1.1-0.9-1.9-2-2.6-3.2l-52-106.5C153.8,318.4,153.4,317,153.5,315.5L153.5,315.5z"/>
			<path class="st1" d="M19.6,710.2h621.6"/>
		</g>
	</g>
	<path class="st1" d="M548.4,314.8c7.8-0.4,9.9-6.5,9.9-6.5"/>
	<path class="st11" d="M218.8,192.2l5-4.6c0.9-0.8,2-1.4,3.2-1.7s2.5-0.2,3.7,0.1c1.2,0.4,2.3,1,3.1,1.9s1.4,2,1.7,3.2l1.5,6.6
		l1.6,6.6c0.3,1.2,0.2,2.5-0.1,3.7c-0.4,1.2-1,2.3-1.9,3.1s-2,1.4-3.2,1.7s-2.5,0.2-3.7-0.1l-6.5-2l-6.5-2c-1.2-0.4-2.3-1-3.1-1.9
		s-1.4-2-1.7-3.2s-0.2-2.5,0.1-3.7c0.4-1.2,1-2.3,1.9-3.1L218.8,192.2z"/>
	<path class="st11" d="M239.4,316.6c0-2.4-2-4.4-4.4-4.4s-4.4,2-4.4,4.4s2,4.4,4.4,4.4C237.5,321.1,239.4,319.1,239.4,316.6z"/>
	<g>
		<path class="st1" d="M463.3,302.8c0,0-5.6,6-1.4,10.5s-2.4,9-2.4,9"/>
		<path class="st1" d="M451,310.1c0,0,3.7,4,0.9,7c-2.8,3,1.6,5.9,1.6,5.9"/>
	</g>
</g>
<circle class="st12" cx="123.7" cy="128.3" r="9"/>
<polygon class="st13" points="740.5,147 725.8,149.2 734.9,160.8 "/>
<polygon class="st14" points="733,513.3 745.4,521.3 746.3,506.6 "/>
<circle class="st15" cx="588.8" cy="144.8" r="9"/>
<circle class="st16" cx="481.7" cy="48.7" r="9"/>
<g>
	<path class="st0" d="M363.7,168.1c-0.3-0.4-0.6-0.6-0.7-0.9c-1.8-2.4-1.5-3,1.1-4.2c12.9-5.7,26.1-11.3,38.4-18.6
		c8.7-5.1,17.4-10.4,26.1-15.6c0.3-0.2,0.6-0.3,0.8-0.5c3.9-2.3,4.6-2.1,7.1,1.8c0.3,0,0.8,0,1.1-0.1c2.5-0.4,3-0.1,4,2.1
		c2.1,4.6,4.1,9.3,6.1,13.9c3.6,8.2,7.1,16.4,10.7,24.6c1.2,2.5,2.4,4.9,4.1,7c2.7,3.2,4.6,7.1,6.4,10.8c4.9,9.2,9.6,18.6,14.3,27.9
		c0.3,0.5,0.5,0.9,0.7,1.4c0.8,2,0.2,3.5-1.7,4.5c-9.2,4.2-18.4,8.4-27.7,12.5c-11.5,5.1-23.1,10.2-34.5,15.3
		c-3.8,1.7-7.7,3.4-11.5,5c-2.9,1.2-3.6,0.8-5.2-1.8c-5.8-9.5-10-19.8-14.6-29.8c-0.6-1.5-0.8-3.3-1-4.9c-0.4-3.5-0.5-6.8-2.7-10.1
		c-7.2-11-14.1-22.2-21.1-33.3c-0.3-0.5-0.6-0.9-0.8-1.4C361.6,170.8,361.6,170.7,363.7,168.1z M368.2,172
		c9.5,15.5,19,30.7,28.5,46.1c11.9-0.5,24.1-1.1,36.2-1.7c1.2-0.1,1.8-0.7,2.5-1.7c6.9-10.7,13.8-21.3,20.6-32
		c0.4-0.7,0.8-1.4,1.2-2c-7.3-14.6-12.7-29.8-19.7-44.4C414.2,148.3,391.5,160,368.2,172z M407.2,248.6c23.7-10,47.1-20,70.7-29.9
		c-4.7-11.6-10.8-22.3-15.9-34.2c-0.9,1.1-1.4,1.8-1.9,2.4c-3.7,5.5-7.5,11.1-11.2,16.6c-3.5,5.2-7.5,10.1-10.6,15.4
		c-1.8,3.1-3.8,3.5-6.7,3.6c-11.7,0.1-23.5,0.3-35.2,0.4c-0.9,0-1.9,0.1-3.2,0.2C398,231.7,402.5,240,407.2,248.6z M381.4,159.1
		C381.4,159,381.4,159,381.4,159.1c-5.1,2-10,4-15.2,6c0.6,0.6,1,1.2,1,1.2C371.9,164,376.7,161.5,381.4,159.1z M427.5,134.5
		c0.1,0.1,0.1,0.2,0.3,0.3c1.7-0.9,3.5-1.8,5.2-2.7c-0.1-0.2-0.2-0.4-0.3-0.6C430.9,132.5,429.2,133.5,427.5,134.5z"/>
	<path class="st0" d="M383.3,220.5c0.8,1,1.5,1.9,2.2,3c2.3,3.6,4.5,7.2,6.8,11c0.6,1,1.1,2.1,1.4,3.3c0.2,0.6-0.2,1.3-0.4,2
		c-0.7-0.3-1.4-0.5-2.2-1c-0.2,0-0.1-0.2-0.2-0.3C388.8,236.1,383.5,224.2,383.3,220.5z"/>
	<path class="st0" d="M471.9,181.3c3.9,6.6,7.7,13.4,10.9,20.2c0.2,0.4,0.2,0.8,0,1.2c-2.8-1.8-3.3-4.5-4.6-6.7
		c-1.3-2.3-2.5-4.8-3.6-7.2c-1.2-2.4-2.3-4.8-3.4-7.2C471.4,181.7,471.6,181.5,471.9,181.3z"/>
	<path class="st0" d="M384.9,238.2c-0.7-0.9-1.5-1.4-1.9-2.2c-1.7-3.4-3.4-6.6-5-10.1c-0.2-0.3-0.3-0.6-0.3-0.9
		c0-0.4,0.2-1.1,0.5-1.3s0.9,0,1.4,0.3c0.4,0.2,0.5,0.7,0.7,1.1c1.6,3.2,3.3,6.2,4.9,9.3C385.6,235.4,386.4,236.5,384.9,238.2z"/>
	<path class="st0" d="M486.6,196.8c-2.6-1.8-6.9-11.1-6.6-13.8C482.4,184.8,486.9,194,486.6,196.8z"/>
	<path class="st11" d="M368.2,172c23.3-12,46.1-23.7,69.3-35.6c6.9,14.5,12.5,29.8,19.7,44.4c-0.3,0.5-0.7,1.2-1.2,2
		c-6.9,10.7-13.8,21.3-20.6,32c-0.7,1-1.2,1.7-2.5,1.7c-12.1,0.5-24.2,1.1-36.2,1.7C387.1,202.7,377.7,187.5,368.2,172z
		 M406.5,170.6c10.4-5.4,17.9-9.2,25.3-13c1.1-0.6,2.2-1.3,3.2-2.1c0.8-0.8,1.2-2,0.4-2.9c-0.6-0.6-1.8-1.2-2.5-0.9
		c-1.5,0.3-3.1,1-4.5,1.6c-6.3,3.3-12.6,6.6-18.8,9.9c-8.2,4.5-16.2,8.9-24.4,13.3c-1.1,0.6-2.2,1.4-3.1,2.2
		c-0.5,0.4-0.7,1.5-0.4,1.9c0.3,0.5,1.3,0.8,1.9,0.7c1.2-0.2,2.3-0.6,3.3-1.2C394.3,176.4,401.9,172.7,406.5,170.6z M388.9,192.5
		c0.2,0.3,0.3,0.6,0.6,0.9c0.5-0.1,1-0.1,1.4-0.3c2.4-1,4.9-1.9,7.1-3c14.1-7,28.1-13.9,42.2-21c1-0.5,1.9-1.3,2.9-2
		c0.8-0.7,1-1.6,0.5-2.6c-0.6-1.1-1.5-1.7-2.7-1.2c-1.4,0.5-2.8,1.2-4.1,1.8c-8.1,4.4-16.1,8.7-24.1,13.2
		c-7.3,4.1-14.5,8.5-21.7,12.7C390.3,191.4,389.7,191.9,388.9,192.5z M396.7,204.4c0.2,0.3,0.3,0.5,0.4,0.8c2.4-1,4.7-1.9,7.1-3
		c12.7-6.2,25.4-12.3,38-18.5c0.9-0.5,1.9-1.1,2.8-1.7c1-0.6,1.6-1.6,0.9-2.7c-0.6-1.1-1.8-1.2-2.8-0.7c-1.1,0.4-2.1,0.8-3.3,1.4
		c-5.2,2.7-10.3,5.4-15.4,8.2c-8.1,4.4-16.2,9-24.3,13.4C398.9,202.3,397.3,202.8,396.7,204.4z"/>
	<path class="st17" d="M407.2,248.6c-4.7-8.6-9.2-16.9-13.9-25.4c1.4-0.1,2.4-0.2,3.2-0.2c11.7-0.2,23.4-0.4,35.2-0.4
		c3,0,4.9-0.5,6.7-3.6c3-5.4,7-10.3,10.6-15.4c3.7-5.5,7.5-11.1,11.2-16.6c0.5-0.6,1-1.3,1.9-2.4c5.1,11.9,11.3,22.6,15.9,34.2
		C454.2,228.7,430.8,238.6,407.2,248.6z"/>
	<path class="st11" d="M381.4,159.1c-4.7,2.4-9.4,4.8-14.2,7.3c-0.1,0.1-0.5-0.5-1-1.2C371.4,163.1,376.4,161.1,381.4,159.1
		C381.4,159,381.4,159,381.4,159.1z"/>
	<path class="st11" d="M427.5,134.5c1.7-1,3.4-2,5.2-2.9c0.1,0.2,0.2,0.4,0.3,0.6c-1.7,0.9-3.5,1.8-5.2,2.7
		C427.7,134.7,427.6,134.6,427.5,134.5z"/>
	<path class="st0" d="M406.5,170.6c-4.5,2.2-12.1,5.8-19.7,9.4c-1,0.5-2.2,1-3.3,1.2c-0.6,0.1-1.6-0.2-1.9-0.7
		c-0.2-0.4,0-1.5,0.4-1.9c1-0.9,2-1.7,3.1-2.2c8.2-4.5,16.2-8.9,24.4-13.3c6.3-3.4,12.6-6.7,18.8-9.9c1.4-0.7,2.9-1.4,4.5-1.6
		c0.8-0.2,2,0.4,2.5,0.9c0.8,0.9,0.4,2.1-0.4,2.9c-1,0.9-2,1.6-3.2,2.1C424.4,161.4,416.9,165.3,406.5,170.6z"/>
	<path class="st0" d="M388.9,192.5c0.8-0.5,1.3-1.2,2.1-1.6c7.2-4.2,14.4-8.7,21.7-12.7c8-4.5,16-8.8,24.1-13.2
		c1.3-0.7,2.7-1.4,4.1-1.8c1.1-0.3,2.1,0.1,2.7,1.2c0.5,1,0.3,1.9-0.5,2.6c-0.9,0.7-1.8,1.5-2.9,2c-14.1,7.1-28.1,14-42.2,21
		c-2.2,1.2-4.8,2.1-7.1,3c-0.4,0.2-0.9,0.2-1.4,0.3C389.3,193,389.1,192.8,388.9,192.5z"/>
	<path class="st0" d="M396.7,204.4c0.6-1.6,2.1-2.1,3.6-2.9c8-4.5,16.2-9,24.3-13.4c5.2-2.8,10.2-5.5,15.4-8.2c1-0.5,2.2-1,3.3-1.4
		c1.1-0.4,2.3-0.4,2.8,0.7c0.6,1.2,0,2.1-0.9,2.7c-0.9,0.6-1.8,1.2-2.8,1.7c-12.7,6.2-25.3,12.4-38,18.5c-2.3,1.1-4.7,2-7.1,3
		C397,204.9,396.8,204.7,396.7,204.4z"/>
</g>
<g>
	<g>
		<path class="st18" d="M213.3,280c-5.6,2.2-10.9,1.9-15.6-1.3c-4.2-2.9-7.2-2.1-11.2,0.9c-14.9,11-31.5,16.5-50.2,12.9
			c-10.6-2.1-19.4-7.3-24.6-17.1c-6-11.4-3.7-22.4,3.2-32.6c12.3-18.5,41.5-30.3,63.2-26c16.1,3.2,28.1,15,29.6,29.3
			c0.9,7.6-1,14.6-4.9,20.9c-2.3,3.6-1.5,6,1.7,8C207.3,276.7,210.3,278.2,213.3,280z"/>
	</g>
</g>
<g>
	<path class="st0" d="M156.4,282.7c-0.2,0-0.5,0-0.7,0c-1.3-0.1-2.2-0.8-2.8-1.8c-0.7-1.1-1-2.3-1-3.6c0-2,0-3.9,0-5.9
		c0-4.5,0.3-8.9,0.7-13.3c0.2-2.1,0.2-4.2,0.1-6.3c0-0.2-0.1-0.3-0.3-0.4c-0.8-0.3-1.5-0.7-2.2-1.3c-0.1,0-0.1-0.1-0.2-0.2
		c0.1,0,0.2,0,0.3,0c-0.1-0.3-0.1-0.6-0.2-0.9c-0.1-0.2-0.2-0.2-0.4-0.1c-0.2,0.1-0.2,0.2-0.1,0.4c0.1-0.1,0.2-0.1,0.3-0.2
		c0.1,0.1,0.1,0.1-0.2,0.4c-0.6-0.5-1.1-1.1-1.5-1.8c-1.4-2.4-1.8-4.9-1-7.6c0.3-1,0.8-1.8,1.5-2.6c0.8-1,1.8-2,3-2.6
		c0.3-0.1,0.6-0.2,0.8-0.3c0.1,0,0.2-0.1,0.2-0.2c0-0.2,0.1-0.3,0.3-0.4c1.6-0.6,3.2-0.7,4.8-0.4c2.1,0.4,3.8,1.5,4.9,3.3
		c1.7,2.7,2.3,5.6,1.7,8.7c-0.2,1.2-0.8,2.4-1.6,3.3c-0.1,0.1-0.1,0.1,0,0.3c1.7,2.6,3.3,5.1,5,7.7c1.4,2.2,3,4.3,4.6,6.4
		c1.3,1.7,2.5,3.4,3.5,5.4c0,0.1,0.1,0.2,0.1,0.3c0.1,0.4,0.4,0.7,0.6,1c0.6,0.8,0.9,1.8,1.1,2.8c0.1,0.8,0.2,1.6-0.1,2.3
		c-0.4,0.9-0.9,1.6-1.7,2.1c-0.1,0-0.1,0.1-0.2,0.2C169.1,279.1,162.7,280.9,156.4,282.7z M153,260.9
		C153,260.9,153.1,260.9,153,260.9c0,0.1,0,0.2,0,0.3c-0.2,0.3-0.2,0.4,0.1,0.6c0,0,0.1,0.1,0.1,0.2c0,0.4-0.1,0.7-0.1,1.1
		c-0.1,4.1-0.3,8.2-0.4,12.3c0,0.8,0,1.6-0.1,2.4c-0.1,0.5,0.1,0.9,0.2,1.3c0,0,0,0.1,0,0.1c0.5,1.2,1.3,2,2.7,2.1
		c0.5,0,1,0.1,1.4,0c0.8-0.1,1.5-0.3,2.3-0.4c0.2,0,0.3,0,0.4,0.1c0.1,0.1,0.2,0.2,0.3,0.1c1.1-0.3,2.1-0.7,3.2-1c1-0.4,2-0.8,3-1.2
		c1.4-0.5,2.8-1,4.2-1.5c1-0.3,1.9-0.6,3-0.7c0.3,0,0.5-0.1,0.8-0.3c0.1-0.1,0.3-0.2,0.4-0.3c0.4-0.2,0.8-0.4,1.1-0.6
		c0.9-0.5,1.5-1.6,1.4-2.6c-0.1-0.7-0.3-1.3-0.6-1.9c-0.1-0.2-0.2-0.4-0.4-0.6c-0.3-0.4-0.7-0.7-1-1.2c-0.7-1-1.2-2-1.9-2.9
		c-1.5-2.1-3-4.2-4.4-6.3c-0.6-0.9-1.4-1.7-1.6-2.8c0-0.1-0.2-0.2-0.3-0.2c-0.2,0-0.2-0.1-0.3-0.2c-0.2-0.2-0.3-0.5-0.5-0.7
		c-1.1-1.7-2.2-3.4-3-5.2c-0.2-0.4-0.4-0.8-0.6-1.2c-0.7,0.5-1.4,1-2.1,1.5c0.1,0.1,0.2,0.2,0.2,0.4c0.4,0.7,0.8,1.5,1.2,2.2
		c0.4,0.6,0.9,1.3,1.3,1.9c0.1,0.1,0.1,0.2,0.3,0.2c0.1,0,0.2,0.1,0.3,0.2c0.1,0.2,0.1,0.4,0.2,0.5c0.1,0.2,0,0.4-0.2,0.5
		c-0.6,0.2-1.1,0.5-1.7,0.6c-1.3,0.3-2.5,0.7-3.7,1.2c-0.6,0.2-1.2,0.4-1.9,0.4c-0.4,0-0.7-0.2-0.8-0.6c-0.1-0.4-0.1-0.9,0-1.3
		c0-0.7,0.2-1.4,0.2-2c0-0.9,0-1.9,0-2.8c0-0.2-0.1-0.3-0.3-0.3c-0.6-0.1-1.2-0.2-1.8-0.3c-0.1,0-0.1,0-0.3-0.1c0.8,3,0.4,6,0.1,9
		c-0.2,0-0.3,0.1-0.4,0.1c-0.1,0-0.1,0.2-0.1,0.3c0,0,0.1,0.1,0.1,0.1C152.9,261,152.9,261,153,260.9C153,260.9,153,260.9,153,260.9
		z M152.8,235.5c-0.3,0.3-0.5,0.6-0.8,0.9c-0.7,0.7-1.4,1.3-2.1,1.9c-1,0.9-1.7,2-2,3.2c0,0.1-0.1,0.3-0.1,0.4
		c0.1,1.3,0.5,2.5,1.4,3.5c0.8,1,1.9,1.7,3.2,1.7c0.6,0,1.1-0.1,1.7-0.2c1.4-0.3,2.6-1,3.6-2c0.6-0.7,1.1-1.5,1.5-2.3
		c0.5-1.1,0.8-2.3,0.8-3.6c0-0.9-0.2-1.7-0.8-2.4c-0.7-0.8-1.6-1.2-2.6-1.3c-0.3,0-0.3-0.1-0.2-0.3c-1,0-2,0.2-3,0.7
		C153,235.9,153.1,235.9,152.8,235.5z M159.6,251.2c-0.6,0.2-1.2,0.4-1.8,0.6c-0.6,0.1-1.2,0.2-1.9,0.3c0.1,0.3,0.1,0.6,0.2,0.8
		c0,0.1,0,0.2-0.1,0.2c-0.3,0.1-0.3,0.3-0.2,0.6c0.2,0.1,0.3-0.1,0.4-0.3c0.1,0.3,0.1,0.3-0.1,0.5c-0.2,0.3-0.2,0.6,0.1,0.9
		c0.1,0.1,0.1,0.2,0.1,0.2c0,0.9-0.1,1.7-0.1,2.6c0,0.1,0,0.1,0,0.2c1.9-0.8,3.9-1.4,5.8-2.1c0,0-0.1-0.1-0.1-0.2
		c-0.3-0.4-0.5-0.9-0.8-1.3c0-0.1-0.1-0.2-0.1-0.2c-0.1-0.6-0.3-1.3-0.4-1.9c-0.2,0-0.3,0.1-0.4,0.1c0.1,0.2,0.1,0.4,0.2,0.6
		c0,0,0,0,0,0C160.1,252.2,159.9,251.7,159.6,251.2z M158.3,235.4c0.1,0.1,0.2,0.2,0.3,0.3c1.1,1.3,1.7,2.8,1.6,4.5
		c0,0.3-0.1,0.6-0.1,0.9c0.2,2.1,0.4,4.2,0.6,6.3c0,0.3,0.1,0.7,0.1,1c0,0,0,0,0.1,0c0.3-0.3,0.6-0.6,0.9-1c0,0,0-0.1,0-0.2
		c-0.4-1.6-0.5-3.3-0.6-4.9c-0.1-1.6-0.2-3.1-0.5-4.7c0-0.2-0.1-0.5-0.1-0.7c0,0,0,0,0.1,0c0,0.1,0.1,0.2,0.1,0.3
		c0.3,1.1,0.5,2.2,0.6,3.3c0.2,1.7,0.3,3.4,0.4,5.1c0,0.5,0.1,1.1,0.2,1.6c0.4-0.5,0.7-1,0.9-1.5c0-0.1,0-0.1,0-0.2
		c-0.3-1-0.5-2-0.6-3.1c-0.1-1.5-0.3-2.9-0.4-4.4c0-0.2-0.1-0.4-0.3-0.6c-0.2-0.2-0.5-0.5-0.7-0.7
		C160.2,236.1,159.3,235.6,158.3,235.4z M159.7,249.2c0.3-0.2,0.6-0.4,0.8-0.5c0.1-0.1,0.2-0.2,0.1-0.3c-0.1-0.4-0.2-0.8-0.2-1.2
		c-0.1-1.3-0.2-2.7-0.3-4c0-0.5-0.1-1-0.1-1.5c-0.1,0-0.1,0.1-0.1,0.1c-0.3,0.6-0.5,1.2-0.8,1.8c0,0.1-0.1,0.2-0.1,0.3
		c0.1,1.5,0.3,3,0.4,4.5C159.6,248.6,159.6,248.9,159.7,249.2z M158.8,244.2c-0.3,0.3-0.5,0.6-0.8,0.9c-0.1,0.1-0.1,0.2-0.1,0.3
		c0,0.9,0.1,1.7,0.1,2.6c0,0.6,0,1.2,0.1,1.8c0.1,0,0.2,0,0.3-0.1c0.3-0.1,0.5-0.2,0.8-0.3c0.2-0.1,0.3-0.2,0.2-0.4
		c-0.3-1.2-0.5-2.3-0.5-3.5C158.8,245.1,158.8,244.7,158.8,244.2z M163.2,245c0-0.2,0.1-0.3,0.1-0.5c0-0.2,0.1-0.5,0.1-0.7
		c-0.1-0.8-0.1-1.7-0.2-2.5c-0.1-0.5-0.1-1-0.2-1.5c-0.2-0.5-0.5-1-0.8-1.5c0,0-0.1-0.1-0.1-0.2c0.1,0.6,0.2,1.2,0.2,1.7
		c0.2,1.4,0.3,2.8,0.5,4.2c0,0.4,0.1,0.7,0.1,1.1c0,0.1,0,0.2,0,0.3c0.1-0.1,0.2-0.1,0.2-0.2c0,0,0,0,0.1,0c0,0.1-0.1,0.2-0.1,0.2
		c0,0.1-0.1,0.2-0.1,0.3c0,0.2,0.1,0.4,0.2,0.3c0.1,0,0.3-0.1,0.4-0.1c-0.1-0.2-0.1-0.4-0.2-0.6C163.6,245.2,163.5,245,163.2,245z
		 M157,250C157,250.1,157,250.1,157,250c0.3,0,0.5-0.1,0.8-0.1c-0.3-1.5-0.1-3-0.1-4.5c-0.4,0.3-0.7,0.5-1.1,0.8
		c-0.1,0-0.1,0.2-0.1,0.2c0,1.1,0.1,2.2,0.2,3.3c0,0.1,0,0.1,0,0.1C156.9,250,157,250,157,250z M154.4,250.2c-0.4-1-0.2-1.9,0-2.9
		c-0.2,0.1-0.5,0.1-0.7,0.1c-0.2,0-0.2,0.1-0.2,0.2c0,0.7-0.1,1.4-0.1,2.1c0,0.1,0,0.1,0,0.2c0,0,0,0-0.1,0
		c-0.4-0.8-0.1-1.6-0.1-2.4c-0.2,0-0.5,0-0.7,0c0,0,0,0.1,0,0.1c0,0.7,0,1.3,0,2c0,0,0.1,0.1,0.1,0.1c0.4,0.1,0.8,0.2,1.2,0.3
		C154,250.1,154.2,250.2,154.4,250.2z M156.5,250.2c0-1.3-0.1-2.5-0.1-3.8c-0.3,0.1-0.5,0.3-0.8,0.4c-0.1,0.1-0.2,0.1-0.2,0.3
		c0,0.4,0,0.8,0.1,1.3c0,0.6,0,1.2,0.1,1.9C155.9,250.2,156.2,250.2,156.5,250.2z M155.3,250.2c0-1.1,0-2.2,0-3.3
		c-0.2,0.1-0.4,0.1-0.6,0.2c-0.1,0-0.2,0.1-0.2,0.2c0,0.5-0.1,1-0.1,1.5c0,0.4,0,0.8,0.1,1.3C154.9,250.2,155.1,250.2,155.3,250.2z
		 M150.1,248.7c0-0.6,0-1.2,0-1.7c0,0,0-0.1,0-0.1c-0.2-0.2-0.5-0.4-0.8-0.7c0,0.6,0,1.2-0.1,1.8c0,0,0,0.1,0.1,0.1
		C149.6,248.2,149.8,248.4,150.1,248.7z M149,247.7c0-0.5,0-0.9,0.1-1.3c0-0.4,0-0.7-0.3-1c-0.1-0.2-0.2-0.4-0.4-0.5
		c0,0-0.1-0.1-0.1-0.2c0,0.6,0.1,1.1,0,1.6C148.3,246.9,148.7,247.2,149,247.7z M151.1,249.3c0-0.6,0.1-1.2,0.1-1.8
		c0,0,0-0.1-0.1-0.1c-0.2-0.1-0.5-0.2-0.7-0.3c0,0,0,0,0,0c0,0.6,0,1.1,0,1.7c0,0,0,0.1,0.1,0.1C150.7,249,150.9,249.2,151.1,249.3z
		 M152.1,247.6c-0.2,0-0.4-0.1-0.6-0.1c0,0,0,0,0,0c0,0.6-0.1,1.2-0.1,1.8c0,0,0,0.1,0.1,0.1c0.2,0.1,0.4,0.2,0.7,0.3
		C152.1,249,152.1,248.3,152.1,247.6z M147.6,242.7c-0.2,1.1-0.1,2.1,0.3,3.2c0-0.4,0.1-0.7,0.1-1.1c0-0.3,0-0.7-0.1-1
		C147.8,243.4,147.7,243.1,147.6,242.7z"/>
	<path class="st0" d="M185.1,245.7c0.1-0.1,0.2-0.1,0.3-0.2c0,0,0,0,0,0c0,0.1-0.1,0.2-0.1,0.3c-0.1,0.2-0.2,0.3-0.1,0.5
		c0,0.1,0.2,0.1,0.2,0.1c0.1,0,0.3-0.1,0.4-0.1c-0.1-0.3-0.1-0.5-0.2-0.8c-0.1-0.2-0.3-0.2-0.6-0.1c0-0.4,0-0.8,0-1.3
		c0-2-0.2-3.9-0.6-5.8c-0.4-1.9-0.8-3.9-1.4-5.8c-0.8-2.7-2-5.2-3.8-7.4c-1.4-1.6-3-2.9-4.9-3.8c-0.3-0.1-0.5-0.6-0.5-1
		c0-0.1,0.1-0.1,0.2-0.1c0.9,0.1,1.7,0.5,2.5,0.9c1.4,0.8,2.5,2,3.4,3.3c1.2,1.7,2.2,3.7,2.9,5.7c0.8,2.1,1.4,4.2,1.9,6.4
		c0.6,2.4,1.1,4.9,1.2,7.4c0.1,2.2,0.1,4.3-0.3,6.5c-0.2,1-0.5,2-1,2.8c-0.3,0.5-0.7,0.9-1.1,1.2c-0.2,0.2-0.3,0.1-0.4-0.1
		c-0.1-0.2-0.1-0.4,0-0.7c0.7-2.2,1.4-4.4,1.7-6.7C184.9,246.5,185,246.1,185.1,245.7C185,245.7,185.1,245.7,185.1,245.7z"/>
	<path class="st0" d="M137.7,268.7c-0.4-0.2-0.8-0.3-1.1-0.5c-1.3-0.7-2.3-1.6-3.2-2.7c-2-2.3-3.7-4.7-5-7.4
		c-1.3-2.6-2.2-5.4-2.7-8.3c-0.5-2.6-0.6-5.2-0.3-7.9c0.1-1,0.1-1.9,0.1-2.9c0-0.4,0.1-0.8,0.1-1.2c0.2,0,0.3,0,0.5,0
		c-0.1-0.4-0.2-0.7-0.3-1c0,0,0.1,0,0.1,0c0.1,0.2,0.1,0.4,0.2,0.6c0.1,0.3,0.2,0.4,0.6,0.3c-0.1,0.1-0.1,0.2-0.1,0.2
		c-0.2,0.1-0.2,0.2-0.1,0.4c0,0.1,0,0.1,0,0.2c-0.2,1.3-0.2,2.6-0.3,3.9c-0.1,1.7-0.1,3.5,0,5.2c0.2,2.7,0.8,5.3,1.8,7.8
		c0.7,1.7,1.5,3.4,2.6,4.9c0.1,0.1,0.2,0.3,0.1,0.4c0,0,0,0.1,0,0.2c0.1,0,0.2,0,0.3-0.1c-0.1,0.1-0.1,0.2-0.1,0.2
		c-0.1,0.2-0.1,0.3,0,0.5c0.1,0.1,0.2,0.1,0.3,0c0.1,0,0.2,0,0.3,0.1c1.5,2,3.4,3.6,5.2,5.4c0.3,0.3,0.6,0.6,0.8,0.9
		C137.7,268.1,137.7,268.3,137.7,268.7z"/>
	<path class="st0" d="M133.2,241.3c-0.1-0.3-0.3-0.4-0.5-0.4c-0.2,0.1-0.3,0.2-0.2,0.4c0.1-0.1,0.2-0.1,0.3-0.2
		c0,0.1-0.1,0.2-0.1,0.3c0,0.1-0.1,0.2-0.1,0.3c0,0.1,0.1,0.2,0.1,0.3c0.1,0,0.2,0,0.3,0c-0.2,3.6,0.4,7,1.9,10.3
		c-0.3,0.1-0.2,0.3-0.2,0.4c0.1,0.5,0.3,1,0.4,1.6c0.1,0,0.2,0,0.3-0.1c-0.1-0.5-0.3-0.9-0.4-1.4c0,0,0,0,0,0
		c0.1,0.1,0.2,0.3,0.3,0.4c0,0.1,0,0.2,0,0.2c0,0.4,0.1,0.5,0.4,0.6c0.1,0,0.2,0.1,0.2,0.2c0.7,1.1,1.5,2.1,2.4,2.9
		c0.8,0.7,1.6,1.3,2.4,1.9c0.5,0.4,1,0.9,1.5,1.3c0.1,0.1,0.2,0.4,0.3,0.5c0.1,0.2,0,0.3-0.2,0.3c-0.6,0.1-1.2-0.1-1.7-0.4
		c-0.9-0.5-1.7-1.2-2.4-2c-1.2-1.4-2.4-2.8-3.3-4.4c-0.2-0.4-0.3-0.8-0.4-1.2c-0.1-0.2-0.1-0.5-0.4-0.5c-0.1,0-0.1-0.1-0.1-0.2
		c-0.5-1.2-0.9-2.5-1.2-3.7c-0.4-1.7-0.7-3.5-0.8-5.3c-0.1-2,0.1-4,0.8-6c0.1-0.3,0.2-0.6,0.4-0.9c0.1-0.2,0.2-0.2,0.3,0
		c0.2,0.4,0.4,0.7,0.2,1.1c-0.4,1-0.6,2.1-0.8,3.1C133.2,241.1,133.2,241.1,133.2,241.3z"/>
	<path class="st0" d="M173.3,229.9c0,0-0.1,0-0.1-0.1c-0.9-0.9-2-1.7-3.1-2.5c-0.2-0.2-0.5-0.4-0.7-0.5c-0.2-0.1-0.3-0.3-0.3-0.6
		c0.2,0,0.4,0,0.7,0.1c0.8,0.2,1.4,0.5,2,1c1.3,1,2.4,2.3,3.3,3.7c1.6,2.4,2.7,5.1,3.2,8c0.1,0.4,0.2,0.9,0.2,1.3c0,0.1,0,0.2,0,0.3
		c-0.1-0.3-0.2-0.1-0.4-0.1c0.2,0.5,0.2,1.1,0.6,1.5c0.1,0.1,0,0.2,0,0.3c0.1,2.1,0,4.2-0.6,6.2c-0.2,0.7-0.5,1.2-1.1,1.7
		c-0.2,0.2-0.3,0.2-0.4-0.1c-0.1-0.3-0.2-0.6-0.1-0.9c0.3-1.1,0.5-2.3,0.8-3.4c0.3-1.1,0.4-2.2,0.4-3.3c0-0.5-0.1-1,0-1.5
		c0.1,0.4,0.2,0.8,0.3,1.1c0.1,0,0.2-0.1,0.3-0.1c-0.1-0.4-0.2-0.9-0.4-1.3c0-0.1-0.2-0.2-0.3-0.3c-0.4-3.6-1.7-7-4-10
		c0.1,0,0.2,0,0.3,0c-0.1-0.3-0.1-0.5-0.2-0.7c-0.1-0.2-0.2-0.3-0.4-0.2C173.3,229.5,173.3,229.7,173.3,229.9
		C173.3,229.9,173.3,229.9,173.3,229.9z"/>
	<path class="st0" d="M169,238.3c-0.1-0.2-0.1-0.4-0.2-0.6c-0.1-0.5-0.2-0.5-0.6-0.3c-0.2-0.4-0.5-0.7-0.7-1.1
		c-0.8-1-1.8-1.7-2.7-2.4c-0.1-0.1-0.2-0.3-0.3-0.4c-0.1-0.2,0-0.3,0.2-0.3c0.5-0.1,1,0,1.4,0.2c0.7,0.4,1.2,1,1.7,1.6
		c1,1.5,1.7,3.1,2.1,4.9c0.3,1.4,0.6,2.8,0.5,4.3c0,0.7-0.1,1.3-0.3,1.9c-0.2,0.3-0.4,0.6-0.7,0.8c-0.2,0.1-0.3,0.1-0.4-0.1
		c-0.2-0.3-0.3-0.7-0.2-1.1c0.1-0.9,0.3-1.9,0.4-2.8c0.2-1.5,0.2-3-0.4-4.4C168.5,238.3,168.8,238.3,169,238.3z"/>
	<path class="st0" d="M141.6,239.8c0.2,0.3,0.4,0.6,0.3,0.9c-0.3,1.3-0.4,2.7-0.3,4c0,0.1,0,0.3,0,0.5c-0.1-0.3-0.3-0.4-0.5-0.3
		c-0.1,0-0.1,0.2-0.2,0.3c0,0,0,0.1,0.1,0.1c0.1-0.1,0.2-0.1,0.3-0.2c0,0.1-0.1,0.2-0.1,0.3c-0.1,0.2-0.2,0.3-0.1,0.5
		c0,0.1,0.2,0.1,0.3,0.1c0.1,0,0.2-0.1,0.3-0.1c0.3,0.7,0.5,1.3,0.7,1.9c0.4,0.9,1.1,1.7,1.7,2.4c0.5,0.5,0.9,1.1,1.4,1.7
		c0.1,0.2,0.2,0.5,0.3,0.7c0.1,0.2-0.1,0.3-0.3,0.3c-0.4,0-0.7-0.1-1-0.3c-0.6-0.4-1-0.9-1.4-1.5c-1.1-1.7-1.8-3.5-2.2-5.5
		c-0.3-1.6-0.4-3.1,0.1-4.7C141.2,240.5,141.4,240.1,141.6,239.8C141.5,239.8,141.6,239.8,141.6,239.8z"/>
	<path class="st0" d="M126.9,236.8c-0.1-0.2-0.1-0.4-0.2-0.7c0-0.1-0.1-0.2-0.2-0.1c-0.1,0-0.2,0.1-0.1,0.2c0.1,0.3,0.2,0.6,0.3,0.9
		c0,0.1,0,0.1,0,0.2c0,0-0.1-0.1-0.1-0.1c-0.1-0.3-0.2-0.6-0.3-0.9c0-0.1,0-0.1,0-0.2c0.1-0.2,0.3-0.4,0.5-0.6
		c0.2-0.2,0.3-0.1,0.4,0.1C127.2,236,127.3,236.4,126.9,236.8z"/>
	<path class="st0" d="M173.3,229.9c0.1-0.1,0.2-0.1,0.3-0.2c0.1,0.1,0.1,0.1-0.2,0.3C173.4,230,173.4,230,173.3,229.9
		C173.3,229.9,173.3,229.9,173.3,229.9z"/>
	<path class="st11" d="M153,260.9C153,260.9,153,260.9,153,260.9c-0.1,0.1-0.2,0.1-0.2,0.2c0,0-0.1,0-0.1-0.1c0-0.1,0-0.2,0.1-0.3
		c0.1-0.1,0.3-0.1,0.4-0.1c0.3-3,0.6-6-0.1-9c0.1,0,0.2,0,0.3,0.1c0.6,0.1,1.2,0.2,1.8,0.3c0.2,0,0.3,0.1,0.3,0.3
		c0,0.9,0.1,1.9,0,2.8c0,0.7-0.1,1.4-0.2,2c0,0.4,0,0.9,0,1.3c0.1,0.4,0.4,0.6,0.8,0.6c0.7,0,1.3-0.2,1.9-0.4
		c1.2-0.5,2.4-0.9,3.7-1.2c0.6-0.1,1.2-0.4,1.7-0.6c0.2-0.1,0.3-0.3,0.2-0.5c0-0.2-0.1-0.4-0.2-0.5c0-0.1-0.2-0.2-0.3-0.2
		c-0.2,0-0.2-0.1-0.3-0.2c-0.4-0.6-0.9-1.2-1.3-1.9c-0.4-0.7-0.8-1.4-1.2-2.2c-0.1-0.1-0.2-0.2-0.2-0.4c0.7-0.5,1.4-1,2.1-1.5
		c0.2,0.4,0.4,0.8,0.6,1.2c0.9,1.8,1.9,3.5,3,5.2c0.2,0.2,0.3,0.5,0.5,0.7c0.1,0.1,0.1,0.2,0.3,0.2c0.1,0,0.3,0.1,0.3,0.2
		c0.2,1.1,1,1.9,1.6,2.8c1.5,2.1,3,4.2,4.4,6.3c0.7,1,1.2,2,1.9,2.9c0.3,0.4,0.7,0.8,1,1.2c0.2,0.2,0.3,0.4,0.4,0.6
		c0.3,0.6,0.5,1.2,0.6,1.9c0.1,1.1-0.4,2.1-1.4,2.6c-0.4,0.2-0.8,0.4-1.1,0.6c-0.2,0.1-0.3,0.2-0.4,0.3c-0.2,0.2-0.5,0.3-0.8,0.3
		c-1,0.1-2,0.4-3,0.7c-1.4,0.5-2.8,1-4.2,1.5c-1,0.4-2,0.8-3,1.2c-1.1,0.4-2.1,0.7-3.2,1c-0.1,0-0.2,0-0.3-0.1
		c-0.1-0.1-0.2-0.2-0.4-0.1c-0.8,0.1-1.5,0.3-2.3,0.4c-0.5,0.1-1,0-1.4,0c-1.4-0.1-2.2-0.9-2.7-2.1c0,0,0-0.1,0-0.1
		c-0.1-0.4-0.3-0.8-0.2-1.3c0.1-0.8,0.1-1.6,0.1-2.4c0.1-4.1,0.3-8.2,0.4-12.3c0-0.4,0-0.7,0.1-1.1c0-0.1,0-0.2-0.1-0.2
		c-0.2-0.2-0.3-0.4-0.1-0.6C153,261.1,153,261,153,260.9C153.1,260.9,153,260.9,153,260.9z M165.2,276.9c0.1,0,0.2-0.1,0.3-0.1
		c2.2-0.6,4.4-1.2,6.7-1.8c0.5-0.1,0.8-0.4,1-0.9c0.2-0.6,0.2-1.2,0-1.8c0-0.1-0.1-0.2-0.1-0.3c0.1-0.6-0.1-1.2-0.5-1.7
		c-0.4-0.6-0.8-1.2-1.2-1.8c-0.1-0.1-0.1-0.2-0.1-0.4c-0.1-0.3-0.2-0.6-0.3-0.9c-0.1-0.2-0.2-0.2-0.4-0.2c-0.5,0-1.1,0.1-1.5,0.4
		c-1,0.5-1.9,0.9-3,1.2c-2.3,0.7-4.5,1.3-6.8,2c-1.2,0.4-2.4,0.8-3.6,1.2c-0.1,0-0.2,0.1-0.2,0.2c-0.1,0.2-0.1,0.4-0.1,0.6
		c-0.2,1.2-0.3,2.3-0.3,3.5c0,1.1,0.4,2.1,1,3c0.6,0.7,1.1,0.7,1.6-0.1c0.1-0.1,0.2-0.1,0.3-0.2c0.7-0.2,1.4-0.2,2-0.4
		c1.5-0.4,3-0.9,4.5-1.3c0.1,0,0.2-0.1,0.3-0.2c0,0,0-0.1,0-0.2c0,0-0.1,0-0.1,0c0,0,0,0.1,0,0.1c-0.1,0-0.1,0.1-0.2,0.1
		c0-0.1-0.1-0.2-0.1-0.2c0.1-0.1,0.2-0.2,0.3-0.2c0.1,0,0.2,0.1,0.3,0.1C165.1,276.6,165.1,276.8,165.2,276.9z M155.6,261.4
		c0,0.1,0,0.2-0.1,0.3c-0.2,0.9-0.2,1.9-0.2,2.9c0,1.1,0,2.1-0.2,3.2c-0.1,0.5,0,1,0.3,1.4c0.2,0.4,0.4,0.5,0.8,0.3
		c1.4-0.4,2.8-0.8,4.3-1.1c1.4-0.4,2.9-0.8,4.3-1.1c0.8-0.2,1.7-0.4,2.5-0.6c0.7-0.2,1.4-0.5,1.9-1c0.2-0.2,0.3-0.5,0.1-0.8
		c-0.1-0.1-0.2-0.3-0.3-0.4c-0.1-0.1-0.1-0.3-0.2-0.4c-0.8-1.6-1.8-3-2.9-4.4c-0.3-0.3-0.6-0.6-0.6-1.1c0,0,0,0,0-0.1
		c-0.1-0.3-0.2-0.4-0.6-0.3c-0.8,0.2-1.7,0.3-2.5,0.5c-2,0.5-4,1.3-5.9,2.3C156.1,261.2,155.9,261.3,155.6,261.4z"/>
	<path class="st19" d="M152.8,235.5c0.3,0.3,0.2,0.3,0.6,0.1c0.9-0.4,1.9-0.7,3-0.7c-0.1,0.3,0,0.3,0.2,0.3c1,0.1,1.9,0.5,2.6,1.3
		c0.6,0.7,0.7,1.6,0.8,2.4c0,1.3-0.3,2.4-0.8,3.6c-0.4,0.8-0.8,1.6-1.5,2.3c-1,1.1-2.2,1.7-3.6,2c-0.5,0.1-1.1,0.2-1.7,0.2
		c-1.3,0-2.4-0.7-3.2-1.7c-0.9-1-1.3-2.2-1.4-3.5c0-0.1,0-0.3,0.1-0.4c0.4-1.3,1.1-2.4,2-3.2c0.7-0.6,1.4-1.3,2.1-1.9
		C152.3,236.2,152.5,235.9,152.8,235.5z M150.3,241.2c0.4,1.4,1.6,1.9,2.8,1.3c1.2-0.7,1.9-1.8,2.2-3.2c0.1-0.3,0-0.7-0.1-1.1
		c-0.4-1.4-1.8-1.8-2.8-0.7c-0.1,0.1-0.2,0.2-0.3,0.3c-0.4,0.3-0.8,0.6-1.1,0.9C150.3,239.5,150.1,240.3,150.3,241.2z"/>
	<path class="st11" d="M159.6,251.2c0.2,0.5,0.4,0.9,0.7,1.4c0,0,0,0,0,0c-0.1-0.2-0.1-0.4-0.2-0.6c0.1,0,0.2-0.1,0.4-0.1
		c0.1,0.7,0.3,1.3,0.4,1.9c0,0.1,0,0.2,0.1,0.2c0.3,0.4,0.5,0.9,0.8,1.3c0,0.1,0.1,0.1,0.1,0.2c-1.9,0.8-3.9,1.3-5.8,2.1
		c0,0,0-0.1,0-0.2c0-0.9,0.1-1.7,0.1-2.6c0-0.1,0-0.2-0.1-0.2c-0.3-0.3-0.3-0.6-0.1-0.9c0.1-0.2,0.1-0.2,0.1-0.5
		c0,0.2-0.1,0.4-0.4,0.3c-0.1-0.3-0.1-0.5,0.2-0.6c0.1-0.1,0.1-0.1,0.1-0.2c-0.1-0.3-0.1-0.6-0.2-0.8c0.6-0.1,1.3-0.1,1.9-0.3
		C158.4,251.7,159,251.4,159.6,251.2z"/>
	<path class="st11" d="M158.3,235.4c1,0.3,1.9,0.8,2.7,1.5c0.2,0.2,0.5,0.5,0.7,0.7c0.2,0.2,0.2,0.4,0.3,0.6
		c0.1,1.5,0.3,2.9,0.4,4.4c0.1,1,0.3,2.1,0.6,3.1c0,0.1,0,0.1,0,0.2c-0.2,0.5-0.5,1-0.9,1.5c-0.1-0.6-0.1-1.1-0.2-1.6
		c-0.1-1.7-0.3-3.4-0.4-5.1c-0.1-1.1-0.3-2.2-0.6-3.3c0-0.1-0.1-0.2-0.1-0.3c0,0,0,0-0.1,0c0,0.2,0.1,0.5,0.1,0.7
		c0.3,1.5,0.4,3.1,0.5,4.7c0.1,1.7,0.2,3.3,0.6,4.9c0,0.1,0,0.1,0,0.2c-0.3,0.3-0.6,0.6-0.9,1c0,0,0,0-0.1,0c0-0.3-0.1-0.7-0.1-1
		c-0.2-2.1-0.4-4.2-0.6-6.3c0-0.3,0.1-0.6,0.1-0.9c0.1-1.7-0.5-3.2-1.6-4.5C158.5,235.5,158.4,235.5,158.3,235.4z"/>
	<path class="st11" d="M159.7,249.2c-0.1-0.3-0.1-0.6-0.1-0.8c-0.1-1.5-0.3-3-0.4-4.5c0-0.1,0-0.2,0.1-0.3c0.3-0.6,0.5-1.2,0.8-1.8
		c0,0,0-0.1,0.1-0.1c0,0.5,0,1,0.1,1.5c0.1,1.3,0.2,2.7,0.3,4c0,0.4,0.1,0.8,0.2,1.2c0,0.1,0,0.2-0.1,0.3
		C160.2,248.9,160,249,159.7,249.2z"/>
	<path class="st11" d="M158.8,244.2c0,0.5,0,0.9,0,1.3c0.1,1.2,0.2,2.4,0.5,3.5c0.1,0.2,0,0.3-0.2,0.4c-0.3,0.1-0.5,0.2-0.8,0.3
		c-0.1,0-0.2,0-0.3,0.1c0-0.6,0-1.2-0.1-1.8c0-0.9-0.1-1.7-0.1-2.6c0-0.1,0-0.2,0.1-0.3C158.3,244.8,158.5,244.5,158.8,244.2z"/>
	<path class="st11" d="M163.2,245c0.3,0,0.4,0.2,0.4,0.4c0.1,0.2,0.1,0.4,0.2,0.6c-0.2,0.1-0.3,0.1-0.4,0.1c-0.1,0-0.3-0.2-0.2-0.3
		c0-0.1,0.1-0.2,0.1-0.3c0-0.1,0.1-0.1,0.1-0.2c-0.1,0-0.1,0-0.1,0c-0.1,0.1-0.2,0.1-0.2,0.2c0-0.1,0-0.2,0-0.3
		c0-0.4-0.1-0.7-0.1-1.1c-0.2-1.4-0.3-2.8-0.5-4.2c-0.1-0.6-0.1-1.1-0.2-1.7c0.1,0.1,0.1,0.1,0.1,0.2c0.3,0.5,0.6,1,0.8,1.5
		c0.2,0.5,0.2,1,0.2,1.5c0.1,0.8,0.2,1.7,0.2,2.5c0,0.2-0.1,0.5-0.1,0.7C163.3,244.7,163.3,244.9,163.2,245z"/>
	<path class="st11" d="M157,250c-0.1,0-0.1-0.1-0.2-0.1c0,0,0-0.1,0-0.1c-0.1-1.1-0.1-2.2-0.2-3.3c0-0.1,0-0.2,0.1-0.2
		c0.3-0.3,0.7-0.5,1.1-0.8c0,1.5-0.2,3,0.1,4.5C157.6,250,157.3,250,157,250C157,250.1,157,250.1,157,250z"/>
	<path class="st11" d="M154.4,250.2c-0.3,0-0.5-0.1-0.7-0.1c-0.4-0.1-0.8-0.2-1.2-0.3c-0.1,0-0.1-0.1-0.1-0.1c0-0.7,0-1.3,0-2
		c0,0,0,0,0-0.1c0.2,0,0.5,0,0.7,0c0,0.8-0.3,1.6,0.1,2.4c0,0,0,0,0.1,0c0-0.1,0-0.1,0-0.2c0-0.7,0.1-1.4,0.1-2.1
		c0-0.2,0.1-0.2,0.2-0.2c0.2,0,0.4-0.1,0.7-0.1C154.3,248.3,154.1,249.2,154.4,250.2z"/>
	<path class="st11" d="M156.5,250.2c-0.3,0-0.6,0-0.9,0.1c0-0.7,0-1.3-0.1-1.9c0-0.4,0-0.8-0.1-1.3c0-0.2,0.1-0.2,0.2-0.3
		c0.3-0.1,0.5-0.3,0.8-0.4C156.5,247.6,156.5,248.9,156.5,250.2z"/>
	<path class="st11" d="M155.3,250.2c-0.2,0-0.4,0-0.7,0c0-0.4-0.1-0.8-0.1-1.3c0-0.5,0-1,0.1-1.5c0-0.1,0.1-0.2,0.2-0.2
		c0.2-0.1,0.4-0.2,0.6-0.2C155.3,248.1,155.3,249.1,155.3,250.2z"/>
	<path class="st11" d="M150.1,248.7c-0.3-0.2-0.5-0.4-0.8-0.7c0,0-0.1-0.1-0.1-0.1c0-0.6,0-1.2,0.1-1.8c0.3,0.2,0.5,0.5,0.8,0.7
		c0,0,0,0.1,0,0.1C150.1,247.5,150.1,248.1,150.1,248.7z"/>
	<path class="st11" d="M149,247.7c-0.3-0.4-0.7-0.8-0.7-1.4c0-0.5,0-1,0-1.6c0.1,0.1,0.1,0.1,0.1,0.2c0.1,0.2,0.2,0.4,0.4,0.5
		c0.3,0.3,0.3,0.6,0.3,1C149,246.8,149,247.2,149,247.7z"/>
	<path class="st11" d="M151.1,249.3c-0.2-0.1-0.4-0.2-0.7-0.4c0,0-0.1-0.1-0.1-0.1c0-0.6,0-1.1,0-1.7c0,0,0,0,0,0
		c0.2,0.1,0.5,0.2,0.7,0.3c0,0,0.1,0.1,0.1,0.1C151.2,248.1,151.2,248.7,151.1,249.3z"/>
	<path class="st11" d="M152.1,247.6c0,0.7,0,1.4,0,2.1c-0.2-0.1-0.4-0.2-0.7-0.3c0,0-0.1-0.1-0.1-0.1c0-0.6,0.1-1.2,0.1-1.8
		c0,0,0,0,0,0C151.7,247.5,152,247.5,152.1,247.6z"/>
	<path class="st11" d="M147.6,242.7c0.1,0.4,0.2,0.7,0.3,1c0.1,0.3,0.2,0.7,0.1,1c0,0.4-0.1,0.7-0.1,1.1
		C147.5,244.9,147.4,243.8,147.6,242.7z"/>
	<path class="st0" d="M165.2,276.9c-0.1-0.1-0.1-0.2-0.1-0.3c-0.1-0.1-0.2-0.1-0.3-0.1c-0.1,0-0.2,0.1-0.3,0.2c0,0,0,0.1,0.1,0.2
		c0.1,0,0.1-0.1,0.2-0.1c0,0,0-0.1,0-0.1c0,0,0.1,0,0.1,0c0,0.1,0,0.1,0,0.2c-0.1,0.1-0.2,0.2-0.3,0.2c-1.5,0.5-3,0.9-4.5,1.3
		c-0.7,0.2-1.4,0.3-2,0.4c-0.1,0-0.2,0.1-0.3,0.2c-0.5,0.7-1.1,0.8-1.6,0.1c-0.7-0.9-1-1.9-1-3c0-1.2,0.1-2.4,0.3-3.5
		c0-0.2,0.1-0.4,0.1-0.6c0-0.1,0.1-0.2,0.2-0.2c1.2-0.4,2.4-0.8,3.6-1.2c2.3-0.7,4.5-1.3,6.8-2c1-0.3,2-0.8,3-1.2
		c0.5-0.2,1-0.4,1.5-0.4c0.2,0,0.4,0.1,0.4,0.2c0.1,0.3,0.2,0.6,0.3,0.9c0,0.1,0.1,0.3,0.1,0.4c0.4,0.6,0.8,1.2,1.2,1.8
		c0.4,0.5,0.6,1,0.5,1.7c0,0.1,0,0.2,0.1,0.3c0.1,0.6,0.2,1.2,0,1.8c-0.2,0.5-0.5,0.8-1,0.9c-2.2,0.6-4.4,1.2-6.7,1.8
		C165.4,276.8,165.3,276.8,165.2,276.9z M172.2,273.6c0.1,0,0.1-0.1,0.1-0.1c0.6-0.5,0.6-1.4,0.1-2.1c-0.6-0.8-1.1-1.6-1.7-2.5
		c-0.2-0.2-0.3-0.5-0.6-0.3c0,0-0.1,0-0.1,0c-0.1,0-0.2,0.1-0.3,0.1c-0.1,0-0.1,0.1-0.2,0.1c-0.4,0.2-0.9,0.4-1.3,0.5
		c-1.2,0.4-2.4,0.7-3.6,1.1c-1.7,0.5-3.4,1.1-5.2,1.6c-0.8,0.2-1.6,0.4-2.4,0.6c-0.2,0-0.3,0.1-0.4-0.1c-0.1-0.2-0.4-0.1-0.5,0.1
		c-0.1,0.2-0.1,0.4-0.1,0.5c0,0.3,0,0.5,0,0.8c-0.1,1-0.1,1.9-0.2,2.9c0,0.2,0,0.5,0.1,0.7c0,0.1,0.2,0.3,0.3,0.3
		c0.5,0.2,1.1,0.1,1.5,0c1.1-0.3,2.1-0.8,3.2-1.1c3.6-1.1,7.2-2.2,10.7-3.3C171.9,273.4,172,273.4,172.2,273.6z"/>
	<path class="st0" d="M155.6,261.4c0.3-0.1,0.5-0.2,0.7-0.3c1.9-0.9,3.9-1.7,5.9-2.3c0.8-0.2,1.7-0.3,2.5-0.5c0.3-0.1,0.4,0,0.6,0.3
		c0,0,0,0,0,0.1c0.1,0.5,0.4,0.8,0.6,1.1c1.1,1.4,2.1,2.8,2.9,4.4c0.1,0.1,0.1,0.3,0.2,0.4c0.1,0.1,0.2,0.3,0.3,0.4
		c0.2,0.3,0.2,0.5-0.1,0.8c-0.6,0.5-1.2,0.8-1.9,1c-0.8,0.2-1.7,0.4-2.5,0.6c-1.4,0.4-2.9,0.7-4.3,1.1c-1.4,0.4-2.8,0.8-4.3,1.1
		c-0.4,0.1-0.6,0-0.8-0.3c-0.3-0.5-0.4-0.9-0.3-1.4c0.2-1.1,0.2-2.1,0.2-3.2c0-1,0-1.9,0.2-2.9C155.5,261.6,155.6,261.4,155.6,261.4
		z M156.1,262.6c0.2,1.8,0.2,3.7,0,5.6c0.1,0,0.2-0.1,0.3-0.1c1.2-0.4,2.5-0.8,3.7-1.2c1.8-0.5,3.5-1,5.2-1.6
		c0.9-0.3,1.7-0.5,2.6-0.6c0,0,0.1,0,0.1,0c-0.3-0.6-0.6-1.2-0.9-1.7c-0.8-1.1-1.6-2.2-2.4-3.2c0-0.1-0.2-0.1-0.2-0.1
		c-0.9,0.3-1.8,0.5-2.7,0.8c-1.1,0.4-2.1,0.8-3.1,1.2C158,262.1,157.1,262.3,156.1,262.6z"/>
	<path class="st0" d="M150.3,241.2c-0.2-0.8,0-1.7,0.7-2.4c0.3-0.3,0.7-0.6,1.1-0.9c0.1-0.1,0.2-0.2,0.3-0.3c1-1,2.4-0.7,2.8,0.7
		c0.1,0.3,0.2,0.7,0.1,1.1c-0.2,1.4-1,2.5-2.2,3.2C152,243.1,150.7,242.6,150.3,241.2z M153.6,237.8c-0.3-0.1-0.5-0.1-0.7,0
		c-1,0.5-1.8,1.3-2.2,2.4c-0.2,0.5-0.1,1,0.3,1.5c0.4,0.4,0.8,0.5,1.4,0.4c0.9-0.2,1.6-0.7,2.1-1.3c0.6-0.7,0.8-1.5,0.7-2.3
		c-0.1-0.8-1-1.3-1.8-0.8C153.4,237.6,153.5,237.7,153.6,237.8z"/>
	<path class="st11" d="M172.2,273.6c-0.1-0.3-0.3-0.3-0.5-0.2c-3.6,1.1-7.2,2.2-10.7,3.3c-1.1,0.3-2.1,0.8-3.2,1.1
		c-0.5,0.1-1,0.2-1.5,0c-0.1,0-0.3-0.2-0.3-0.3c-0.1-0.2-0.1-0.4-0.1-0.7c0.1-1,0.1-1.9,0.2-2.9c0-0.3,0-0.5,0-0.8
		c0-0.2,0.1-0.4,0.1-0.5c0.1-0.2,0.4-0.3,0.5-0.1c0.1,0.2,0.2,0.2,0.4,0.1c0.8-0.2,1.6-0.3,2.4-0.6c1.7-0.5,3.5-1.1,5.2-1.6
		c1.2-0.4,2.4-0.7,3.6-1.1c0.5-0.1,0.9-0.3,1.3-0.5c0.1,0,0.1-0.1,0.2-0.1c0.1,0,0.2-0.1,0.3-0.1c0,0,0.1,0,0.1,0
		c0.3-0.2,0.4,0.1,0.6,0.3c0.5,0.8,1.1,1.7,1.7,2.5c0.5,0.7,0.5,1.6-0.1,2.1C172.3,273.6,172.2,273.6,172.2,273.6z"/>
	<path class="st11" d="M156.1,262.6c0.9-0.3,1.8-0.5,2.7-0.8c1.1-0.4,2.1-0.8,3.1-1.2c0.9-0.3,1.8-0.6,2.7-0.8c0.1,0,0.2,0,0.2,0.1
		c0.8,1.1,1.6,2.1,2.4,3.2c0.4,0.5,0.6,1.1,0.9,1.7c0,0-0.1,0-0.1,0c-0.9,0-1.8,0.2-2.6,0.6c-1.7,0.6-3.5,1.1-5.2,1.6
		c-1.2,0.3-2.5,0.8-3.7,1.2c-0.1,0-0.2,0.1-0.3,0.1C156.4,266.3,156.3,264.4,156.1,262.6z"/>
	<path class="st11" d="M153.6,237.8c-0.1-0.1-0.1-0.1-0.2-0.2c0.7-0.4,1.7,0,1.8,0.8c0.1,0.9-0.2,1.7-0.7,2.3
		c-0.6,0.7-1.3,1.2-2.1,1.3c-0.5,0.1-1,0-1.4-0.4c-0.4-0.4-0.5-0.9-0.3-1.5c0.5-1.1,1.2-1.9,2.2-2.4
		C153.1,237.7,153.3,237.7,153.6,237.8z"/>
</g>
</svg>
